# MagicaVoxel @ Ephtracy

# group
o 

# material
mtllib cerealBox.mtl
usemtl palette

# normals
vn -1 0 0
vn 1 0 0
vn 0 0 1
vn 0 0 -1
vn 0 -1 0
vn 0 1 0

# texcoords
vt 0.587891 0.5
vt 0.958984 0.5
vt 0.986328 0.5
vt 0.994141 0.5

# verts
v -0.5 0 1.4
v -0.5 0 1.1
v -0.5 0 -0.5
v -0.5 0 -1
v -0.5 0.5 0.9
v -0.5 0.5 0.7
v -0.5 0.5 0.4
v -0.5 0.5 0
v -0.5 0.6 0.8
v -0.5 0.6 0.7
v -0.5 0.6 0.3
v -0.5 0.6 0.1
v -0.5 0.7 0.8
v -0.5 0.7 0.7
v -0.5 0.7 -0.1
v -0.5 0.7 -0.3
v -0.5 0.8 0.9
v -0.5 0.8 0.8
v -0.5 0.8 -0.1
v -0.5 0.8 -0.3
v -0.5 0.9 0.9
v -0.5 0.9 0.8
v -0.5 0.9 0.6
v -0.5 0.9 0.5
v -0.5 0.9 0.3
v -0.5 0.9 0.1
v -0.5 1 0.9
v -0.5 1 0.7
v -0.5 1 0.4
v -0.5 1 0
v -0.5 1.1 0.6
v -0.5 1.1 0.5
v -0.5 1.2 0.8
v -0.5 1.2 0.5
v -0.5 1.2 0.4
v -0.5 1.2 0.1
v -0.5 1.2 -0.1
v -0.5 1.2 -0.3
v -0.5 1.3 0.7
v -0.5 1.3 0.6
v -0.5 1.3 0.3
v -0.5 1.3 0.2
v -0.5 1.3 0
v -0.5 1.3 -0.1
v -0.5 1.3 -0.2
v -0.5 1.4 0
v -0.5 1.4 -0.1
v -0.5 1.4 -0.2
v -0.5 1.5 0
v -0.5 1.5 -0.1
v -0.5 1.5 -0.2
v -0.5 1.6 0.7
v -0.5 1.6 0.6
v -0.5 1.6 0.3
v -0.5 1.6 0.2
v -0.5 1.6 0
v -0.5 1.6 -0.1
v -0.5 1.6 -0.2
v -0.5 1.7 0.8
v -0.5 1.7 0.5
v -0.5 1.7 0.4
v -0.5 1.7 0.1
v -0.5 1.7 -0.1
v -0.5 1.7 -0.3
v -0.5 2.1 1.1
v -0.5 2.1 0.9
v -0.5 2.1 -0.3
v -0.5 2.1 -0.5
v -0.5 2.2 0.9
v -0.5 2.2 0.6
v -0.5 2.2 0
v -0.5 2.2 -0.3
v -0.5 2.3 0.6
v -0.5 2.3 0
v -0.5 2.6 1.4
v -0.5 2.6 -1
v 0.3 0 1.4
v 0.3 0 -1
v 0.3 0.3 -0.4
v 0.3 0.3 -0.5
v 0.3 0.4 -0.3
v 0.3 0.4 -0.4
v 0.3 0.5 -0.2
v 0.3 0.5 -0.3
v 0.3 0.6 -0.4
v 0.3 0.6 -0.5
v 0.3 0.7 1
v 0.3 0.7 -0.2
v 0.3 0.8 1.3
v 0.3 0.8 1.1
v 0.3 0.8 -0.3
v 0.3 0.8 -0.4
v 0.3 0.9 -0.1
v 0.3 0.9 -0.3
v 0.3 1 1.3
v 0.3 1 1.1
v 0.3 1 0.6
v 0.3 1 0.2
v 0.3 1.4 0.6
v 0.3 1.4 0.2
v 0.3 1.4 -0.3
v 0.3 1.4 -0.5
v 0.3 1.6 -0.3
v 0.3 1.6 -0.5
v 0.3 1.8 0.8
v 0.3 1.8 0.6
v 0.3 1.8 0.4
v 0.3 1.8 0.2
v 0.3 2.1 0.8
v 0.3 2.1 0.6
v 0.3 2.1 0.4
v 0.3 2.1 0.2
v 0.3 2.3 1
v 0.3 2.3 -0.1
v 0.3 2.6 1.4
v 0.3 2.6 -1
v -0.5 0 1.4
v -0.5 2.6 1.4
v 0.3 0 1.4
v 0.3 2.6 1.4
v -0.5 0 -1
v -0.5 2.6 -1
v -0.2 1.6 -1
v -0.2 2 -1
v -0.2 2.1 -1
v -0.2 2.3 -1
v -0.2 2.4 -1
v 0 1.7 -1
v 0 1.8 -1
v 0 2 -1
v 0 2.1 -1
v 0.1 1.7 -1
v 0.1 1.8 -1
v 0.2 1.6 -1
v 0.2 2.3 -1
v 0.2 2.4 -1
v 0.3 0 -1
v 0.3 2.6 -1
v -0.5 0 1.4
v 0.3 0 1.4
v -0.5 0 1.1
v -0.4 0 1.1
v -0.5 0 -0.5
v -0.4 0 -0.5
v -0.5 0 -1
v 0.3 0 -1
v -0.5 2.6 1.4
v 0.3 2.6 1.4
v -0.5 2.6 -1
v 0.3 2.6 -1

# faces
f 5/3/1 3/3/1 2/3/1
f 6/3/1 3/3/1 5/3/1
f 7/3/1 3/3/1 6/3/1
f 8/3/1 3/3/1 7/3/1
f 9/4/1 6/4/1 5/4/1
f 10/3/1 7/3/1 6/3/1
f 10/4/1 6/4/1 9/4/1
f 11/4/1 8/4/1 7/4/1
f 12/4/1 8/4/1 11/4/1
f 13/4/1 9/4/1 5/4/1
f 13/3/1 10/3/1 9/3/1
f 14/3/1 7/3/1 10/3/1
f 14/3/1 10/3/1 13/3/1
f 15/3/1 3/3/1 8/3/1
f 16/3/1 3/3/1 15/3/1
f 17/3/1 5/3/1 2/3/1
f 17/4/1 13/4/1 5/4/1
f 17/4/1 14/4/1 13/4/1
f 18/4/1 14/4/1 17/4/1
f 19/4/1 16/4/1 15/4/1
f 19/3/1 15/3/1 8/3/1
f 20/3/1 3/3/1 16/3/1
f 20/4/1 16/4/1 19/4/1
f 21/3/1 18/3/1 17/3/1
f 21/3/1 17/3/1 2/3/1
f 22/4/1 14/4/1 18/4/1
f 22/3/1 18/3/1 21/3/1
f 23/3/1 7/3/1 14/3/1
f 24/3/1 7/3/1 23/3/1
f 25/3/1 12/3/1 11/3/1
f 25/4/1 11/4/1 7/4/1
f 26/4/1 8/4/1 12/4/1
f 26/3/1 12/3/1 25/3/1
f 27/3/1 21/3/1 2/3/1
f 27/4/1 22/4/1 21/4/1
f 28/4/1 14/4/1 22/4/1
f 28/4/1 22/4/1 27/4/1
f 28/3/1 23/3/1 14/3/1
f 29/4/1 25/4/1 7/4/1
f 29/3/1 7/3/1 24/3/1
f 29/4/1 26/4/1 25/4/1
f 30/3/1 19/3/1 8/3/1
f 30/4/1 26/4/1 29/4/1
f 30/4/1 8/4/1 26/4/1
f 30/3/1 20/3/1 19/3/1
f 31/3/1 23/3/1 28/3/1
f 31/3/1 28/3/1 27/3/1
f 31/4/1 24/4/1 23/4/1
f 32/3/1 29/3/1 24/3/1
f 32/4/1 24/4/1 31/4/1
f 32/3/1 30/3/1 29/3/1
f 33/3/1 31/3/1 27/3/1
f 33/3/1 32/3/1 31/3/1
f 34/3/1 30/3/1 32/3/1
f 34/3/1 32/3/1 33/3/1
f 35/3/1 30/3/1 34/3/1
f 36/3/1 30/3/1 35/3/1
f 37/3/1 20/3/1 30/3/1
f 37/3/1 30/3/1 36/3/1
f 38/3/1 3/3/1 20/3/1
f 38/3/1 20/3/1 37/3/1
f 39/4/1 34/4/1 33/4/1
f 40/4/1 34/4/1 39/4/1
f 41/4/1 36/4/1 35/4/1
f 42/4/1 36/4/1 41/4/1
f 43/3/1 37/3/1 36/3/1
f 44/4/1 38/4/1 37/4/1
f 44/3/1 37/3/1 43/3/1
f 45/4/1 38/4/1 44/4/1
f 46/3/1 43/3/1 36/3/1
f 46/4/1 44/4/1 43/4/1
f 47/3/1 45/3/1 44/3/1
f 47/4/1 44/4/1 46/4/1
f 48/4/1 38/4/1 45/4/1
f 48/3/1 45/3/1 47/3/1
f 49/3/1 47/3/1 46/3/1
f 49/3/1 46/3/1 36/3/1
f 50/4/1 48/4/1 47/4/1
f 50/3/1 47/3/1 49/3/1
f 51/4/1 38/4/1 48/4/1
f 51/4/1 48/4/1 50/4/1
f 52/4/1 39/4/1 33/4/1
f 52/3/1 40/3/1 39/3/1
f 53/4/1 34/4/1 40/4/1
f 53/3/1 40/3/1 52/3/1
f 54/4/1 41/4/1 35/4/1
f 54/3/1 42/3/1 41/3/1
f 55/4/1 36/4/1 42/4/1
f 55/3/1 42/3/1 54/3/1
f 56/4/1 50/4/1 49/4/1
f 56/3/1 49/3/1 36/3/1
f 57/3/1 51/3/1 50/3/1
f 57/4/1 50/4/1 56/4/1
f 58/4/1 38/4/1 51/4/1
f 58/3/1 51/3/1 57/3/1
f 59/3/1 33/3/1 27/3/1
f 59/4/1 52/4/1 33/4/1
f 59/4/1 53/4/1 52/4/1
f 60/3/1 35/3/1 34/3/1
f 60/4/1 53/4/1 59/4/1
f 60/4/1 34/4/1 53/4/1
f 61/4/1 54/4/1 35/4/1
f 61/3/1 35/3/1 60/3/1
f 61/4/1 55/4/1 54/4/1
f 62/4/1 36/4/1 55/4/1
f 62/4/1 55/4/1 61/4/1
f 62/3/1 57/3/1 56/3/1
f 62/3/1 56/3/1 36/3/1
f 63/4/1 58/4/1 57/4/1
f 63/3/1 57/3/1 62/3/1
f 64/4/1 38/4/1 58/4/1
f 64/4/1 58/4/1 63/4/1
f 64/3/1 3/3/1 38/3/1
f 65/1/1 2/1/1 1/1/1
f 65/3/1 63/3/1 62/3/1
f 65/3/1 64/3/1 63/3/1
f 65/3/1 59/3/1 27/3/1
f 65/3/1 61/3/1 60/3/1
f 65/3/1 60/3/1 59/3/1
f 65/3/1 62/3/1 61/3/1
f 65/3/1 27/3/1 2/3/1
f 66/3/1 64/3/1 65/3/1
f 67/3/1 3/3/1 64/3/1
f 67/3/1 64/3/1 66/3/1
f 68/1/1 4/1/1 3/1/1
f 68/3/1 3/3/1 67/3/1
f 69/1/1 66/1/1 65/1/1
f 69/3/1 67/3/1 66/3/1
f 70/3/1 67/3/1 69/3/1
f 71/3/1 67/3/1 70/3/1
f 72/1/1 68/1/1 67/1/1
f 72/3/1 67/3/1 71/3/1
f 73/3/1 71/3/1 70/3/1
f 73/1/1 70/1/1 69/1/1
f 74/1/1 72/1/1 71/1/1
f 74/3/1 71/3/1 73/3/1
f 75/1/1 65/1/1 1/1/1
f 75/1/1 69/1/1 65/1/1
f 75/1/1 74/1/1 73/1/1
f 75/1/1 73/1/1 69/1/1
f 76/1/1 4/1/1 68/1/1
f 76/1/1 74/1/1 75/1/1
f 76/1/1 68/1/1 72/1/1
f 76/1/1 72/1/1 74/1/1
f 77/1/2 78/1/2 79/1/2
f 79/1/2 78/1/2 80/1/2
f 77/1/2 79/1/2 81/1/2
f 79/2/2 80/2/2 82/2/2
f 81/1/2 79/1/2 82/1/2
f 77/1/2 81/1/2 83/1/2
f 81/2/2 82/2/2 84/2/2
f 83/1/2 81/1/2 84/1/2
f 82/2/2 80/2/2 85/2/2
f 84/2/2 82/2/2 85/2/2
f 83/2/2 84/2/2 85/2/2
f 80/1/2 78/1/2 86/1/2
f 85/2/2 80/2/2 86/2/2
f 77/1/2 83/1/2 87/1/2
f 83/2/2 85/2/2 88/2/2
f 87/1/2 83/1/2 88/1/2
f 77/1/2 87/1/2 89/1/2
f 89/1/2 87/1/2 90/1/2
f 88/2/2 85/2/2 91/2/2
f 87/2/2 88/2/2 91/2/2
f 85/1/2 86/1/2 92/1/2
f 91/2/2 85/2/2 92/2/2
f 87/2/2 91/2/2 93/2/2
f 91/1/2 92/1/2 94/1/2
f 93/2/2 91/2/2 94/2/2
f 89/2/2 90/2/2 95/2/2
f 77/1/2 89/1/2 95/1/2
f 90/1/2 87/1/2 96/1/2
f 95/2/2 90/2/2 96/2/2
f 87/2/2 93/2/2 97/2/2
f 97/2/2 93/2/2 98/2/2
f 87/2/2 97/2/2 99/2/2
f 97/4/2 98/4/2 99/4/2
f 98/2/2 93/2/2 100/2/2
f 99/4/2 98/4/2 100/4/2
f 94/1/2 92/1/2 101/1/2
f 93/1/2 94/1/2 101/1/2
f 86/1/2 78/1/2 102/1/2
f 101/1/2 92/1/2 102/1/2
f 92/1/2 86/1/2 102/1/2
f 93/1/2 101/1/2 103/1/2
f 101/2/2 102/2/2 103/2/2
f 102/1/2 78/1/2 104/1/2
f 103/2/2 102/2/2 104/2/2
f 87/2/2 99/2/2 105/2/2
f 99/2/2 100/2/2 105/2/2
f 105/2/2 100/2/2 106/2/2
f 106/2/2 100/2/2 107/2/2
f 100/2/2 93/2/2 108/2/2
f 107/2/2 100/2/2 108/2/2
f 87/2/2 105/2/2 109/2/2
f 105/4/2 106/4/2 109/4/2
f 106/2/2 107/2/2 110/2/2
f 109/4/2 106/4/2 110/4/2
f 107/4/2 108/4/2 111/4/2
f 110/2/2 107/2/2 111/2/2
f 108/2/2 93/2/2 112/2/2
f 111/4/2 108/4/2 112/4/2
f 87/2/2 109/2/2 113/2/2
f 96/1/2 87/1/2 113/1/2
f 111/2/2 112/2/2 113/2/2
f 109/2/2 110/2/2 113/2/2
f 110/2/2 111/2/2 113/2/2
f 95/1/2 96/1/2 113/1/2
f 93/1/2 103/1/2 114/1/2
f 113/2/2 112/2/2 114/2/2
f 112/2/2 93/2/2 114/2/2
f 103/1/2 104/1/2 114/1/2
f 77/1/2 95/1/2 115/1/2
f 95/1/2 113/1/2 115/1/2
f 113/1/2 114/1/2 115/1/2
f 114/1/2 104/1/2 116/1/2
f 115/1/2 114/1/2 116/1/2
f 104/1/2 78/1/2 116/1/2
f 119/1/3 118/1/3 117/1/3
f 120/1/3 118/1/3 119/1/3
f 121/1/4 122/1/4 123/1/4
f 123/1/4 122/1/4 124/1/4
f 124/1/4 122/1/4 125/1/4
f 125/1/4 122/1/4 126/1/4
f 126/1/4 122/1/4 127/1/4
f 123/2/4 124/2/4 128/2/4
f 128/2/4 124/2/4 129/2/4
f 124/4/4 125/4/4 130/4/4
f 129/2/4 124/2/4 130/2/4
f 125/2/4 126/2/4 131/2/4
f 130/4/4 125/4/4 131/4/4
f 128/4/4 129/4/4 132/4/4
f 123/2/4 128/2/4 132/2/4
f 129/2/4 130/2/4 133/2/4
f 132/4/4 129/4/4 133/4/4
f 130/2/4 131/2/4 133/2/4
f 121/1/4 123/1/4 134/1/4
f 123/2/4 132/2/4 134/2/4
f 132/2/4 133/2/4 134/2/4
f 133/2/4 131/2/4 135/2/4
f 134/2/4 133/2/4 135/2/4
f 131/2/4 126/2/4 135/2/4
f 126/4/4 127/4/4 135/4/4
f 127/1/4 122/1/4 136/1/4
f 135/4/4 127/4/4 136/4/4
f 121/1/4 134/1/4 137/1/4
f 134/1/4 135/1/4 137/1/4
f 135/1/4 136/1/4 137/1/4
f 136/1/4 122/1/4 138/1/4
f 137/1/4 136/1/4 138/1/4
f 141/1/5 140/1/5 139/1/5
f 142/1/5 140/1/5 141/1/5
f 143/3/5 142/3/5 141/3/5
f 144/1/5 140/1/5 142/1/5
f 144/3/5 142/3/5 143/3/5
f 145/1/5 144/1/5 143/1/5
f 146/1/5 140/1/5 144/1/5
f 146/1/5 144/1/5 145/1/5
f 147/1/6 148/1/6 149/1/6
f 149/1/6 148/1/6 150/1/6
